<svg aria-hidden="true" style="position:absolute;width:0;height:0;overflow:hidden" xmlns="http://www.w3.org/2000/svg">
    <defs>
        <symbol id="mail" viewBox="0 0 32 32">
            <path fill="none" stroke="#9da4bd" style="stroke:var(--color1, #9da4bd)" stroke-linejoin="round"
                stroke-linecap="round" stroke-width="1.333"
                d="M6.4 6.667h19.2c1.32 0 2.4 1.05 2.4 2.333v14c0 1.283-1.08 2.333-2.4 2.333H6.4C5.08 25.333 4 24.283 4 23V9c0-1.283 1.08-2.333 2.4-2.333z" />
            <path fill="none" stroke="#9da4bd" style="stroke:var(--color1, #9da4bd)" stroke-linejoin="round"
                stroke-linecap="round" stroke-width="1.333" d="m26.667 9.333-10.667 8-10.667-8" />
        </symbol>
        <symbol id="map-pin" viewBox="0 0 32 32">
            <path fill="none" stroke="#9da4bd" style="stroke:var(--color1, #9da4bd)" stroke-linejoin="round"
                stroke-linecap="round" stroke-width="1.333"
                d="M26.667 13.818C26.667 21.454 16 28 16 28S5.333 21.455 5.333 13.818C5.333 8.396 10.109 4 16 4s10.667 4.396 10.667 9.818v0z" />
            <path fill="none" stroke="#9da4bd" style="stroke:var(--color1, #9da4bd)" stroke-linejoin="round"
                stroke-linecap="round" stroke-width="1.333" d="M16 18.667a4 4 0 1 0 0-8 4 4 0 0 0 0 8z" />
        </symbol>
        <symbol id="phone" viewBox="0 0 32 32">
            <path fill="none" stroke="#9da4bd" style="stroke:var(--color1, #9da4bd)" stroke-linejoin="round"
                stroke-linecap="round" stroke-width="1.333"
                d="M26.666 21.337v3.218a2.146 2.146 0 0 1-2.338 2.145 21.239 21.239 0 0 1-9.257-3.293 20.914 20.914 0 0 1-6.436-6.436 21.221 21.221 0 0 1-3.293-9.3 2.144 2.144 0 0 1 2.134-2.338h3.218a2.144 2.144 0 0 1 2.145 1.845c.136 1.03.388 2.041.751 3.014a2.144 2.144 0 0 1-.483 2.263l-1.362 1.362a17.162 17.162 0 0 0 6.436 6.436l1.362-1.362a2.146 2.146 0 0 1 2.263-.483c.973.363 1.984.615 3.014.751a2.144 2.144 0 0 1 1.845 2.177z" />
        </symbol>
        <symbol id="facebook" viewBox="0 0 32 32">
            <path
                d="M21.33 5.313h2.921V.225C23.747.156 22.014 0 19.995 0c-4.212 0-7.097 2.649-7.097 7.519V12H8.25v5.688h4.648V32h5.699V17.689h4.46l.708-5.688h-5.169V8.082c.001-1.644.444-2.769 2.735-2.769z" />
        </symbol>
        <symbol id="instagram" viewBox="0 0 32 32">
            <path
                d="M31.912 9.408c-.075-1.7-.35-2.869-.744-3.882a7.803 7.803 0 0 0-1.85-2.838A7.867 7.867 0 0 0 26.486.844C25.467.45 24.304.175 22.604.1 20.891.019 20.347 0 16.003 0s-4.888.019-6.595.094c-1.7.075-2.869.35-3.882.744a7.803 7.803 0 0 0-2.838 1.85A7.867 7.867 0 0 0 .844 5.52C.45 6.539.175 7.702.1 9.402c-.081 1.713-.1 2.257-.1 6.601s.019 4.888.094 6.595c.075 1.7.35 2.869.744 3.882a7.895 7.895 0 0 0 1.85 2.838 7.867 7.867 0 0 0 2.832 1.844c1.019.394 2.182.669 3.882.744 1.706.075 2.25.094 6.595.094s4.888-.019 6.595-.094c1.7-.075 2.869-.35 3.882-.744a8.184 8.184 0 0 0 4.682-4.682c.394-1.019.669-2.182.744-3.882.075-1.707.094-2.251.094-6.595s-.006-4.888-.081-6.595zm-2.881 13.065c-.069 1.563-.331 2.407-.55 2.969a5.31 5.31 0 0 1-3.038 3.038c-.563.219-1.413.481-2.969.55-1.688.075-2.194.094-6.464.094s-4.782-.019-6.464-.094c-1.563-.069-2.407-.331-2.969-.55a4.926 4.926 0 0 1-1.838-1.194 4.974 4.974 0 0 1-1.194-1.838c-.219-.563-.481-1.413-.55-2.969-.075-1.688-.094-2.194-.094-6.464s.019-4.782.094-6.464c.069-1.563.331-2.407.55-2.969a4.868 4.868 0 0 1 1.2-1.838A4.974 4.974 0 0 1 6.583 3.55c.563-.219 1.413-.481 2.969-.55 1.688-.075 2.194-.094 6.464-.094 4.276 0 4.782.019 6.464.094 1.563.069 2.407.331 2.969.55a4.914 4.914 0 0 1 1.838 1.194 4.974 4.974 0 0 1 1.194 1.838c.219.563.481 1.413.55 2.969.075 1.688.094 2.194.094 6.464s-.019 4.77-.094 6.458z" />
            <path
                d="M16.059 7.783c-4.538 0-8.22 3.682-8.22 8.22s3.682 8.22 8.22 8.22c4.539 0 8.22-3.682 8.22-8.22s-3.682-8.22-8.22-8.22zm0 13.552a5.333 5.333 0 0 1 0-10.664 5.333 5.333 0 0 1 0 10.664zM26.524 7.458a1.919 1.919 0 1 1-3.838 0 1.919 1.919 0 0 1 3.838 0z" />
        </symbol>
        <symbol id="linkedin" viewBox="0 0 32 32">
            <path
                d="M31.992 32v-.001H32V20.263c0-5.741-1.236-10.164-7.948-10.164-3.227 0-5.392 1.771-6.276 3.449h-.093v-2.913h-6.364v21.364h6.627V21.42c0-2.785.528-5.479 3.977-5.479 3.399 0 3.449 3.179 3.449 5.657v10.401h6.62zM.528 10.636h6.635V32H.528V10.636zM3.843 0C1.722 0 0 1.721 0 3.843s1.721 3.879 3.843 3.879c2.121 0 3.843-1.757 3.843-3.879A3.846 3.846 0 0 0 3.843 0z" />
        </symbol>
        <symbol id="twitter" viewBox="0 0 32 32">
            <path
                d="M32 6.078c-1.19.522-2.458.868-3.78 1.036a6.523 6.523 0 0 0 2.886-3.626 13.11 13.11 0 0 1-4.16 1.588A6.574 6.574 0 0 0 22.154 3c-3.632 0-6.556 2.948-6.556 6.562 0 .52.044 1.02.152 1.496-5.454-.266-10.28-2.88-13.522-6.862a6.605 6.605 0 0 0-.898 3.316 6.57 6.57 0 0 0 2.914 5.452 6.479 6.479 0 0 1-2.964-.808v.072c0 3.188 2.274 5.836 5.256 6.446a6.548 6.548 0 0 1-1.72.216 5.8 5.8 0 0 1-1.242-.112c.85 2.598 3.262 4.508 6.13 4.57a13.182 13.182 0 0 1-8.134 2.798c-.538 0-1.054-.024-1.57-.09A18.469 18.469 0 0 0 10.064 29c12.072 0 18.672-10 18.672-18.668 0-.29-.01-.57-.024-.848A13.087 13.087 0 0 0 32 6.078z" />
        </symbol>
        <symbol id="barber-logo" viewBox="0 0 32 32">
            <path
                d="m18.275 11.191.596.437a.367.367 0 0 1 .157.261.346.346 0 0 1-.103.285l-3.523 3.791c-.037.041-.089.068-.145.074s-.113-.008-.16-.039l-.137-.096a.24.24 0 0 0-.292 0l-1.903 1.694c1.351-.16 2.69-.402 4.011-.724a18.751 18.751 0 0 0 5.971-2.686s.537 1.197.15 1.638c-1.615 1.882-9.129 3.538-11.672 3.139l-1.714 1.516-.127-.135 1.364-1.503a.827.827 0 0 1-.231-.134 4.16 4.16 0 0 1-.237-.908 34.343 34.343 0 0 0 1.505-.1l5.85-6.447c.076-.089.186-.145.305-.156s.239.023.332.095zm-6.863 7.036a.283.283 0 0 0-.017.262.295.295 0 0 0 .114.133c.051.033.111.05.172.05a.321.321 0 0 0 .22-.085.291.291 0 0 0 .089-.211.287.287 0 0 0-.011-.077l-.003.003c-.019-.061-.059-.114-.112-.152s-.118-.058-.184-.058a.324.324 0 0 0-.268.136zM15.439 5.884l.724.948.351-.013-.758-1.008c.202-.066.378-.195.503-.366a.99.99 0 0 0 .16-.603.935.935 0 0 0-.355-.75 1.378 1.378 0 0 0-.919-.246l-1.153.004.1 3.017h.321l-.03-.957.815-.026c.081.004.162.004.243 0zm.596-.726a.682.682 0 0 1-.177.257 1.042 1.042 0 0 1-.68.22l-.806.026-.052-1.508.823-.03c.24-.02.481.042.68.177a.683.683 0 0 1 .256.551.688.688 0 0 1-.044.308zm-2.849 1.566.065.271-2.088.487-.693-2.939 2.028-.47.061.267-1.733.401.247 1.043 1.525-.358.065.267-1.529.353.26 1.09 1.794-.414zm-5.42-1.12-.29.129 1.257 2.745 1.837-.832-.113-.25-1.547.698-1.144-2.491zM4.746 7.53l.26-.194 1.651 2.198 1.361-1.013.165.22-1.616 1.202-1.82-2.413zm-.724 4.12 1.01-1.34.867.181.204-.267-3.263-.698-.186.254 1.603 2.909.199-.267-.433-.771zM3.013 9.853l1.733.388-.867 1.159-.867-1.547zm-.364 2.87-.069.297.992.25c.105.262.123.55.052.823a1.35 1.35 0 0 1-.303.608 1.266 1.266 0 0 1-.542.349 1.224 1.224 0 0 1-.663 0 1.23 1.23 0 0 1-.594-.315 1.183 1.183 0 0 1-.334-.547 1.34 1.34 0 0 1-.013-.677 1.243 1.243 0 0 1 .572-.836l-.156-.237a1.26 1.26 0 0 0-.433.401 1.84 1.84 0 0 0-.247.595c-.078.282-.078.58 0 .862.07.26.213.494.412.677.202.19.452.321.724.379.271.062.553.051.819-.03a1.49 1.49 0 0 0 .667-.431c.188-.213.317-.472.373-.75.047-.2.061-.407.039-.612a1.453 1.453 0 0 0-.169-.552l-1.127-.254zm15.805-6.692-.156 1.03-.316-.047.16-1.013-.897-2.155.338.052.767 1.836 1.3-1.521.303.065-1.499 1.754zm4.662.306-.377-.487.594-.069V5.57l-.624.086.221-.577-.186-.078-.234.569-.334-.491-.169.129.381.487-.615.069v.207l.624-.082-.243.565.182.078.238-.565.377.5.165-.129zm1.07 2.986A1.194 1.194 0 0 1 24 8.802l.256-.112c.019.171.075.335.165.483.097.165.223.311.373.431.154.147.352.242.563.271a.482.482 0 0 0 .408-.168.382.382 0 0 0 .099-.293.787.787 0 0 0-.104-.297 4.751 4.751 0 0 0-.264-.384 3.914 3.914 0 0 1-.312-.474.862.862 0 0 1-.113-.405c0-.16.06-.314.169-.431a.79.79 0 0 1 .36-.246.874.874 0 0 1 .481 0c.202.066.39.171.55.31.133.11.251.238.351.379.092.131.161.277.204.431l-.247.129a1.488 1.488 0 0 0-.191-.405 1.54 1.54 0 0 0-.29-.297.967.967 0 0 0-.559-.263.473.473 0 0 0-.407.176.365.365 0 0 0-.1.293c.01.109.046.213.104.306.061.099.147.228.264.384.116.147.22.302.312.465a.86.86 0 0 1 .117.405c0 .16-.06.314-.169.431a.774.774 0 0 1-.364.246.838.838 0 0 1-.481 0 1.625 1.625 0 0 1-.555-.31 1.94 1.94 0 0 1-.433-.534zm3.748-.233.611.862-2.257 1.586.182.263 2.262-1.573.611.862.225-.159-1.408-2-.225.159zm-.36 4.405a1.43 1.43 0 0 1 .433-.672 1.54 1.54 0 0 1 .711-.358c.269-.062.55-.051.815.03.255.084.483.232.663.431.187.214.314.472.368.75a1.63 1.63 0 0 1 0 .832 1.468 1.468 0 0 1-.433.672 1.614 1.614 0 0 1-1.547.337 1.456 1.456 0 0 1-.663-.431 1.605 1.605 0 0 1-.368-.746 1.647 1.647 0 0 1 .022-.845zm.568 1.37c.145.164.332.285.542.349a1.345 1.345 0 0 0 1.257-.276c.16-.146.278-.332.342-.539a1.385 1.385 0 0 0-.282-1.267 1.233 1.233 0 0 0-.559-.349 1.3 1.3 0 0 0-.667 0 1.194 1.194 0 0 0-.589.297c-.161.147-.28.335-.342.543a1.283 1.283 0 0 0 0 .668c.047.214.151.411.299.573zm.225 3.202-1.122.431-.082.323 1.196-.431c.001.213.075.419.21.584s.322.28.531.325a.946.946 0 0 0 .823-.12c.258-.199.436-.483.503-.802l.295-1.09-2.929-.78-.082.306.919.237-.212.78-.008.03-.004.013c-.018.066-.036.13-.036.194zm.532.788a.763.763 0 0 1-.202-.236 1.035 1.035 0 0 1-.013-.711l.208-.776 1.469.392-.208.776c-.047.24-.177.455-.368.608a.792.792 0 0 1-.606.087.762.762 0 0 1-.279-.139zm-3.21 2.418-.221-.168 1.3-1.702 2.418 1.823-1.257 1.651-.221-.168 1.062-1.392-.867-.651-.949 1.245-.217-.164.971-1.245-.897-.677-1.122 1.448zm-1.633 3.47.62-.034-.316.521.182.103.286-.56.329.517.169-.108-.334-.513h.628v-.211l-.62.034.295-.543-.186-.099-.269.577-.329-.517-.169.108.334.513-.62.004v.207zm-5.013-.38.524.289a1.355 1.355 0 0 1 .867-.681c.172-.053.353-.072.533-.056a.863.863 0 0 1 .433.155.69.69 0 0 1 .243.345.76.76 0 0 1-.026.517 2.153 2.153 0 0 1-.433.599c.143.076.275.17.394.28a.748.748 0 0 1 .178.297.565.565 0 0 1-.113.504.831.831 0 0 1-.485.332.753.753 0 0 1-.537 0 .536.536 0 0 1-.312-.367.585.585 0 0 1 .03-.431c.099-.196.23-.375.386-.53l-1.044-.577c-.04.203-.049.411-.026.616h-.264a2.05 2.05 0 0 1 .087-.75l-.546-.302.113-.241zm.754.431 1.148.634a1.81 1.81 0 0 0 .368-.496.54.54 0 0 0 0-.388.471.471 0 0 0-.304-.323.878.878 0 0 0-.555 0 1.039 1.039 0 0 0-.676.561l.017.013zm1.629 1.724a.395.395 0 0 0 .035-.319.53.53 0 0 0-.139-.224 1.837 1.837 0 0 0-.36-.237 2.26 2.26 0 0 0-.342.431.432.432 0 0 0-.035.319.373.373 0 0 0 .191.229.49.49 0 0 0 .342 0 .51.51 0 0 0 .29-.203l.017.004zm-7.604-1.849-.061 3.017.264.004 1.348-2.211 1.274 2.254h.264l.056-3.017h-.308l-.043 2.4-1.153-2.043h-.152l-1.231 2.008.048-2.413h-.308zm-1.568-.138a1.464 1.464 0 0 1 .395 1.491 1.521 1.521 0 0 1-.412.702c-.193.188-.434.32-.698.379a1.7 1.7 0 0 1-.841-.026 1.628 1.628 0 0 1-.728-.392 1.443 1.443 0 0 1-.403-.681A1.58 1.58 0 0 1 10 24.487c.189-.188.426-.322.685-.388a1.68 1.68 0 0 1 .836.026c.275.069.528.209.732.405zm-1.477-.15a1.161 1.161 0 0 0-.559.31 1.24 1.24 0 0 0-.329.573c-.06.216-.06.444 0 .659.051.21.161.401.316.552.163.159.365.273.585.332.22.056.451.056.672 0 .212-.052.407-.159.563-.31.159-.159.272-.357.329-.573a1.228 1.228 0 0 0 0-.664 1.202 1.202 0 0 0-.321-.552 1.304 1.304 0 0 0-.589-.328 1.258 1.258 0 0 0-.667 0zm-3.163-.819-.117-1.185-.308-.198.126 1.267a1.01 1.01 0 0 0-.624.047.99.99 0 0 0-.455.431.952.952 0 0 0-.096.819c.128.299.358.544.65.69l.988.565 1.516-2.599-.282-.159-.477.836-.706-.405a2.087 2.087 0 0 0-.217-.108zm-.892.31a.793.793 0 0 1 .281-.134v-.022c.25-.013.497.062.698.211l.698.401-.758 1.293-.698-.401a1.06 1.06 0 0 1-.498-.513.763.763 0 0 1 .278-.836zm-1.79-3.517.195-.194 1.495 1.53-2.166 2.103-1.443-1.482.199-.194 1.226 1.254.741-.746-1.075-1.112.208-.198 1.096 1.12.806-.78-1.283-1.301zm-3.115-2.288-.104.595-.468-.405-.143.155.481.401-.581.203.065.168.581-.207-.121.612.208.039.108-.612.464.431.139-.155-.481-.405.585-.198-.069-.19-.576.211.117-.612-.204-.03z" />
        </symbol>

        <symbol id="favicon" viewBox="0 0 32 32" fill="none">
            <g fill-rule="evenodd" clip-rule="evenodd" fill="#FF6C00">
                <path
                    d="m43.404 26.578 1.416 1.037a.873.873 0 0 1 .257.27.837.837 0 0 1-.127 1.027l-8.367 9.003a.558.558 0 0 1-.724.083l-.324-.228a.565.565 0 0 0-.692 0l-4.52 4.022c3.207-.38 6.389-.954 9.525-1.72a44.576 44.576 0 0 0 14.182-6.379s1.276 2.842.357 3.89c-3.835 4.47-21.681 8.403-27.72 7.456l-4.071 3.601-.303-.322 3.24-3.57a1.96 1.96 0 0 1-.548-.32 9.859 9.859 0 0 1-.562-2.157 80.068 80.068 0 0 0 3.574-.237L41.89 26.723a1.112 1.112 0 0 1 1.513-.145zm-16.3 16.711a.686.686 0 0 0 .229.938c.12.077.263.119.408.119a.752.752 0 0 0 .523-.204.695.695 0 0 0 .212-.502.676.676 0 0 0-.025-.183l-.007.007a.706.706 0 0 0-.266-.36.756.756 0 0 0-.437-.138.766.766 0 0 0-.637.323zM36.666 13.975l1.72 2.252.833-.031-1.801-2.395c.48-.158.898-.462 1.194-.87.277-.425.41-.927.38-1.433a2.24 2.24 0 0 0-.844-1.78 3.265 3.265 0 0 0-2.181-.584l-2.737.01.236 7.164h.762l-.072-2.272 1.934-.061c.192.01.385.01.576 0zm1.418-1.725a1.626 1.626 0 0 1-.42.61 2.478 2.478 0 0 1-1.615.521l-1.914.062-.123-3.583 1.955-.071a2.51 2.51 0 0 1 1.615.42 1.65 1.65 0 0 1 .608 1.31 1.62 1.62 0 0 1-.106.73zm-6.768 3.72.155.645-4.96 1.157-1.647-6.98 4.816-1.116.144.634-4.116.952.587 2.477 3.622-.85.154.635-3.632.84.617 2.589 4.26-.982zm-12.873-2.66-.69.306 2.985 6.52 4.363-1.975-.267-.594-3.674 1.658-2.717-5.916zm-7.172 4.574.618-.46 3.92 5.22 3.232-2.405.39.522-3.838 2.855-4.322-5.732zM9.553 27.67l2.398-3.183 2.058.43.483-.634-7.748-1.659-.443.604 3.808 6.909.473-.634-1.03-1.833zm-2.398-4.268 4.116.922-2.058 2.753L7.155 23.4zm-.864 6.817-.164.706 2.356.594c.25.621.293 1.306.124 1.954a3.197 3.197 0 0 1-.72 1.444c-.35.381-.794.667-1.287.829a2.927 2.927 0 0 1-1.574 0 2.907 2.907 0 0 1-1.41-.747 2.792 2.792 0 0 1-.792-1.3 3.177 3.177 0 0 1-.031-1.607 2.918 2.918 0 0 1 1.358-1.986l-.37-.563a2.998 2.998 0 0 0-1.03.952 4.358 4.358 0 0 0-.586 1.413 3.849 3.849 0 0 0 0 2.047c.167.616.506 1.174.978 1.606.479.451 1.073.763 1.718.901a3.775 3.775 0 0 0 1.945-.072 3.53 3.53 0 0 0 1.585-1.023 3.84 3.84 0 0 0 .885-1.78c.112-.477.143-.968.092-1.454a3.425 3.425 0 0 0-.4-1.31l-2.676-.604zM43.83 14.323l-.37 2.446-.752-.113.38-2.405-2.13-5.117.803.122 1.822 4.36 3.087-3.612.72.153-3.56 4.166zm11.072.727-.896-1.157 1.41-.164v-.501l-1.482.204.525-1.371-.442-.184-.556 1.35-.793-1.166-.4.307.905 1.157-1.461.163v.492l1.481-.195-.576 1.341.432.184.566-1.34.896 1.187.39-.307zm2.54 7.092A2.825 2.825 0 0 1 57 20.904l.608-.266c.045.406.178.797.39 1.146.23.392.53.739.886 1.024.366.349.834.575 1.337.645a1.129 1.129 0 0 0 .968-.4.92.92 0 0 0 .236-.696 1.877 1.877 0 0 0-.247-.706 10.742 10.742 0 0 0-.627-.91 9.29 9.29 0 0 1-.741-1.127 2.038 2.038 0 0 1-.268-.962c0-.38.143-.745.402-1.023.224-.27.52-.473.854-.584.373-.107.769-.107 1.142 0 .48.157.925.407 1.307.737.317.262.597.565.833.9.219.312.383.658.484 1.024l-.587.308a3.594 3.594 0 0 0-.452-.963 3.704 3.704 0 0 0-.69-.706 2.29 2.29 0 0 0-1.327-.624 1.117 1.117 0 0 0-.968.42.88.88 0 0 0-.236.696c.024.258.108.506.247.726.144.236.35.543.627.911.276.349.524.718.741 1.105.172.293.267.624.278.963a1.5 1.5 0 0 1-.401 1.023 1.832 1.832 0 0 1-.865.583c-.372.112-.77.112-1.142 0a3.823 3.823 0 0 1-1.317-.736 4.66 4.66 0 0 1-1.03-1.27zm8.901-.552 1.451 2.047-5.361 3.766.432.625 5.372-3.736 1.45 2.047.536-.379-3.345-4.749-.535.379zm-.853 10.46a3.396 3.396 0 0 1 1.029-1.597 3.66 3.66 0 0 1 1.687-.85 3.745 3.745 0 0 1 1.935.072c.605.2 1.148.552 1.575 1.024a3.83 3.83 0 0 1 .874 1.78 3.88 3.88 0 0 1 0 1.976 3.499 3.499 0 0 1-1.029 1.597 3.825 3.825 0 0 1-3.674.798 3.449 3.449 0 0 1-1.574-1.023 3.84 3.84 0 0 1-.875-1.77 3.92 3.92 0 0 1 .052-2.007zm1.348 3.255c.343.389.788.676 1.286.829a3.207 3.207 0 0 0 2.984-.655c.38-.348.66-.79.813-1.28a3.278 3.278 0 0 0-.669-3.009 2.935 2.935 0 0 0-1.327-.829 3.102 3.102 0 0 0-1.585 0c-.524.1-1.009.345-1.4.706a2.854 2.854 0 0 0-.812 1.29c-.14.52-.14 1.067 0 1.587.112.507.357.977.71 1.36zm.535 7.604-2.665 1.024-.195.767 2.84-1.023c.002.505.178.995.498 1.387.32.393.765.665 1.262.773a2.234 2.234 0 0 0 1.955-.287 3.242 3.242 0 0 0 1.194-1.904l.7-2.59-6.957-1.852-.196.727 2.182.563-.504 1.852a6.534 6.534 0 0 1-.02.07l-.008.032c-.043.157-.085.31-.085.461zm1.263 1.872a1.846 1.846 0 0 1-.48-.562 2.454 2.454 0 0 1-.031-1.688l.494-1.843 3.488.932-.494 1.842c-.11.569-.42 1.08-.874 1.443a1.857 1.857 0 0 1-2.103-.124zm-7.623 5.743-.525-.399 3.088-4.043 5.742 4.33-2.984 3.92-.525-.4 2.52-3.305-2.057-1.546-2.254 2.958-.514-.389 2.305-2.958-2.13-1.607-2.666 3.44zm-3.878 8.24 1.471-.082-.75 1.238.431.246.68-1.33.782 1.227.401-.255-.792-1.218h1.492v-.502l-1.472.082.7-1.29-.442-.235-.638 1.371-.782-1.228-.402.256.792 1.218-1.471.01v.492zm-11.906-.901 1.245.686a3.186 3.186 0 0 1 2.058-1.617 3.27 3.27 0 0 1 1.266-.134c.37.029.725.156 1.029.369.274.206.476.492.576.819.124.404.102.838-.062 1.228a5.118 5.118 0 0 1-1.029 1.423c.34.181.654.404.937.665.194.2.338.441.422.706a1.355 1.355 0 0 1-.268 1.198 1.976 1.976 0 0 1-1.153.788 1.8 1.8 0 0 1-1.276 0 1.286 1.286 0 0 1-.74-.87 1.386 1.386 0 0 1 .072-1.024c.236-.465.545-.89.915-1.259l-2.48-1.371a4.844 4.844 0 0 0-.061 1.463h-.628a4.867 4.867 0 0 1 .206-1.78l-1.297-.717.268-.573zm1.79 1.023 2.727 1.505a4.28 4.28 0 0 0 .875-1.177 1.293 1.293 0 0 0 0-.921 1.103 1.103 0 0 0-.72-.768 2.068 2.068 0 0 0-1.318 0 2.474 2.474 0 0 0-1.605 1.33l.041.031zm3.87 4.094a.918.918 0 0 0 .082-.757 1.258 1.258 0 0 0-.33-.532 4.45 4.45 0 0 0-.854-.563c-.312.307-.585.65-.813 1.023a1.018 1.018 0 0 0-.082.758.858.858 0 0 0 .453.542c.262.099.55.099.813 0 .28-.074.524-.244.69-.48l.04.01zm-18.06-4.39-.144 7.164.628.01 3.2-5.25 3.026 5.353h.628l.133-7.165h-.73l-.103 5.701-2.738-4.851h-.36l-2.922 4.77.113-5.733h-.73zm-3.724-.328a3.472 3.472 0 0 1 .936 3.541 3.638 3.638 0 0 1-.977 1.669 3.462 3.462 0 0 1-1.657.9 4.014 4.014 0 0 1-1.996-.061 3.876 3.876 0 0 1-1.73-.932c-.463-.44-.794-1-.956-1.617a3.757 3.757 0 0 1 1.029-3.602 3.556 3.556 0 0 1 1.626-.922 3.984 3.984 0 0 1 1.986.062 3.886 3.886 0 0 1 1.739.962zm-3.51-.358a2.752 2.752 0 0 0-1.327.737c-.379.375-.649.845-.782 1.36a2.902 2.902 0 0 0 0 1.567c.122.498.382.952.751 1.31.388.377.866.648 1.39.788a3.25 3.25 0 0 0 1.595 0 2.927 2.927 0 0 0 1.337-.737c.378-.377.647-.847.783-1.361a2.933 2.933 0 0 0 0-1.576 2.873 2.873 0 0 0-.762-1.31 3.092 3.092 0 0 0-1.4-.778 2.991 2.991 0 0 0-1.584 0zm-7.511-1.945-.278-2.815-.73-.47.298 3.009a2.399 2.399 0 0 0-1.482.112 2.35 2.35 0 0 0-1.08 1.024 2.243 2.243 0 0 0-.227 1.944c.303.711.85 1.292 1.544 1.638l2.346 1.341 3.602-6.172-.67-.379-1.131 1.986-1.678-.962a4.802 4.802 0 0 0-.514-.256zm-2.118.738c.198-.15.425-.258.667-.318v-.051c.594-.031 1.18.146 1.657.501l1.656.952-1.8 3.07-1.657-.951a2.524 2.524 0 0 1-1.184-1.218 1.833 1.833 0 0 1 .66-1.985zm-4.251-8.353.463-.46 3.55 3.633-5.145 4.995-3.427-3.521.473-.46 2.913 2.978 1.76-1.77-2.553-2.642.494-.47 2.604 2.66 1.914-1.852-3.046-3.09zM4.316 42.91l-.247 1.413-1.111-.962-.34.368 1.143.952-1.38.481.155.4 1.379-.492-.288 1.453.494.093.257-1.454 1.101 1.024.33-.369-1.143-.962 1.39-.47-.165-.451-1.369.502.278-1.454-.484-.072z" />
            </g>
        </symbol>

        <symbol id="close" viewBox="0 0 32 32">
            <path
                d="M32 3.223 28.777 0 16 12.777 3.223 0 0 3.223 12.777 16 0 28.777 3.223 32 16 19.223 28.777 32 32 28.777 19.223 16 32 3.223z" />
        </symbol>
        <symbol id="email" viewBox="0 0 24 32">
            <path
                d="M20 8H4c-1.1 0-1.99.9-1.99 2L2 22c0 1.1.9 2 2 2h16c1.1 0 2-.9 2-2V10c0-1.1-.9-2-2-2zm-.4 4.25-7.07 4.42c-.32.2-.74.2-1.06 0L4.4 12.25a.85.85 0 1 1 .9-1.44L12 15l6.7-4.19a.85.85 0 1 1 .9 1.44z" />
        </symbol>
        <symbol id="person" viewBox="0 0 32 32">
            <path
                d="M16 16c2.947 0 5.333-2.387 5.333-5.333S18.946 5.334 16 5.334c-2.947 0-5.333 2.387-5.333 5.333S13.054 16 16 16zm0 2.667c-3.56 0-10.667 1.787-10.667 5.333v1.333c0 .733.6 1.333 1.333 1.333h18.667c.733 0 1.333-.6 1.333-1.333V24c0-3.547-7.107-5.333-10.667-5.333z" />
        </symbol>
        <symbol id="phone" viewBox="0 0 24 32">
            <path
                d="m19.635 16.366-2.451-.387c-.589-.094-1.167.187-1.582.761l-1.775 2.458c-2.731-1.924-4.969-5.01-6.359-8.805l1.785-2.472c.415-.575.618-1.376.55-2.191l-.28-3.367c-.116-1.349-.936-2.365-1.92-2.365H5.934c-1.09 0-1.997 1.256-1.93 2.766.511 11.41 7.102 20.521 15.332 21.229 1.09.094 1.997-1.162 1.997-2.672V19.01c.01-1.349-.724-2.485-1.698-2.645z" />
        </symbol>
        <symbol id="unchecked" viewBox="0 0 32 32">
            <path stroke-width="2" d="M4 1h24a3 3 0 0 1 3 3v24a3 3 0 0 1-3 3H4a3 3 0 0 1-3-3V4a3 3 0 0 1 3-3z" />
        </symbol>
        <symbol id="checked" viewBox="0 0 32 32">
            <path fill="#404bbf" d="M4 1h24a3 3 0 0 1 3 3v24a3 3 0 0 1-3 3H4a3 3 0 0 1-3-3V4a3 3 0 0 1 3-3z"
                style="fill:var(--color1, #404bbf)" />
            <path fill="#f4f4fd"
                d="M22.891 8.51a1.832 1.832 0 0 1 2.558.02 1.855 1.855 0 0 1 .068 2.571L15.728 23.41a1.845 1.845 0 0 1-1.314.591 1.83 1.83 0 0 1-1.336-.542l-6.492-6.527a1.863 1.863 0 0 1-.451-2.046 1.85 1.85 0 0 1 1.017-1.022 1.823 1.823 0 0 1 1.438.026c.225.101.429.247.597.429l5.137 5.163 8.521-10.915a.628.628 0 0 1 .049-.054h-.002z"
                style="fill:var(--color2, #f4f4fd)" />
            <path fill="none" stroke="#404bbf" stroke-width="2"
                d="M4 1h24a3 3 0 0 1 3 3v24a3 3 0 0 1-3 3H4a3 3 0 0 1-3-3V4a3 3 0 0 1 3-3z"
                style="stroke:var(--color1, #404bbf)" />
        </symbol>
        <symbol id="booking-valid-icon" viewBox="0 0 32 32">
            <path
                d="M16 1.28C7.87 1.28 1.28 7.87 1.28 16S7.87 30.72 16 30.72 30.72 24.13 30.72 16 24.13 1.28 16 1.28zm0 5.76a1.92 1.92 0 1 1-.001 3.841A1.92 1.92 0 0 1 16 7.04zm2.56 17.28h-5.12v-1.28h1.28v-8.32h-1.28v-1.28h3.84v9.6h1.28v1.28z" />
        </symbol>
        <symbol id="menu" viewBox="0 0 48 32">
            <path fill="#fff" style="fill:var(--color1, #fff)"
                d="M0 5.333V0h48v5.333H0zm0 13.334h48v-5.333H0v5.333zM0 32h48v-5.333H0V32z" />
        </symbol>
</svg>
</defs>
</svg>